<svg width="221" height="83" viewBox="0 0 221 83" fill="none" xmlns="http://www.w3.org/2000/svg">
<path d="M17.75 1H32.25L36 5.22293V13.9172L30 28.5732V31.9268H38.5L48.5 59.8726L37 82.5H12.5L1 59.8726L11 31.9268H19.5V28.5732L13.5 13.9172V5.22293L17.75 1Z" fill="white"/>
<path d="M17.75 1V9.19745M17.75 1H32.25M17.75 1L13.5 5.22293M17.75 9.19745H32.25M17.75 9.19745L13.5 13.9172M32.25 9.19745V1M32.25 9.19745L36 13.9172M32.25 1L36 5.22293M13.5 13.9172H36M13.5 13.9172V5.22293M13.5 13.9172L19.5 28.5732M36 13.9172V5.22293M36 13.9172L30 28.5732M36 5.22293L30 20.8726M13.5 5.22293L19.5 20.8726M19.5 28.5732H30M19.5 28.5732V20.8726M19.5 28.5732V31.9268M30 28.5732V20.8726M30 28.5732V31.9268M19.5 20.8726H30M19.5 31.9268V35.2803H30V31.9268M19.5 31.9268H11M11 31.9268V39.5032M11 31.9268L1 59.8726M30 31.9268H38.5M38.5 31.9268V39.5032M38.5 31.9268L48.5 59.8726M11 39.5032H24.75H38.5M11 39.5032L1 59.8726M38.5 39.5032L48.5 59.8726M1 59.8726L12.5 82.5H37L48.5 59.8726M15 42.9809H34.5L39.5 59.1401L34.5 75.2994H15L10 59.1401L15 42.9809Z" stroke="#404B34"/>
<line x1="67.5" y1="2" x2="67.5" y2="83" stroke="#404B34"/>
<path d="M104.007 21.79C104.407 21.79 104.752 21.68 105.042 21.46C105.342 21.24 105.492 20.87 105.492 20.35C105.492 20 105.332 19.71 105.012 19.48C104.702 19.25 104.312 19.045 103.842 18.865C103.372 18.675 103.052 18.545 102.882 18.475C102.722 18.395 102.507 18.27 102.237 18.1C101.747 17.77 101.502 17.295 101.502 16.675C101.502 16.055 101.747 15.54 102.237 15.13C102.727 14.72 103.442 14.515 104.382 14.515C104.982 14.515 105.492 14.65 105.912 14.92C106.342 15.18 106.557 15.495 106.557 15.865C106.557 16.235 106.417 16.49 106.137 16.63C105.987 16.7 105.837 16.735 105.687 16.735C105.547 16.735 105.407 16.705 105.267 16.645C105.307 16.465 105.327 16.27 105.327 16.06C105.327 15.85 105.277 15.64 105.177 15.43C105.007 15.07 104.682 14.89 104.202 14.89C103.722 14.89 103.357 15.02 103.107 15.28C102.857 15.54 102.732 15.88 102.732 16.3C102.732 16.73 102.912 17.05 103.272 17.26C103.542 17.43 103.877 17.585 104.277 17.725C104.677 17.865 104.947 17.965 105.087 18.025C105.237 18.075 105.432 18.165 105.672 18.295C105.912 18.425 106.092 18.56 106.212 18.7C106.522 19.04 106.677 19.5 106.677 20.08C106.677 20.66 106.417 21.155 105.897 21.565C105.377 21.965 104.742 22.165 103.992 22.165C103.242 22.165 102.582 22.05 102.012 21.82C101.452 21.59 101.172 21.255 101.172 20.815C101.172 20.405 101.477 20.135 102.087 20.005C102.267 21.195 102.907 21.79 104.007 21.79ZM115.14 14.515C115.7 14.515 116.24 14.635 116.76 14.875C117.05 15.005 117.28 15.205 117.45 15.475C117.63 15.745 117.72 16.06 117.72 16.42C117.72 16.78 117.56 17.025 117.24 17.155C117.11 17.205 116.97 17.23 116.82 17.23C116.68 17.23 116.535 17.18 116.385 17.08C116.425 16.87 116.445 16.625 116.445 16.345C116.445 16.055 116.355 15.78 116.175 15.52C115.915 15.13 115.545 14.935 115.065 14.935C113.675 14.935 112.98 16.08 112.98 18.37C112.98 19.49 113.14 20.335 113.46 20.905C113.79 21.465 114.32 21.745 115.05 21.745C115.98 21.745 116.725 21.295 117.285 20.395C117.505 20.465 117.615 20.575 117.615 20.725C117.615 20.865 117.52 21.045 117.33 21.265C117.15 21.475 116.83 21.68 116.37 21.88C115.92 22.07 115.4 22.165 114.81 22.165C113.78 22.165 112.945 21.815 112.305 21.115C111.675 20.415 111.36 19.49 111.36 18.34C111.36 17.19 111.7 16.265 112.38 15.565C113.07 14.865 113.99 14.515 115.14 14.515ZM125.713 22.165C124.683 22.165 123.853 21.815 123.223 21.115C122.593 20.415 122.278 19.49 122.278 18.34C122.278 17.19 122.608 16.265 123.268 15.565C123.938 14.865 124.778 14.515 125.788 14.515C126.798 14.515 127.553 14.745 128.053 15.205C128.553 15.655 128.803 16.285 128.803 17.095C128.803 17.335 128.783 17.575 128.743 17.815H123.898V18.34C123.898 19.46 124.058 20.31 124.378 20.89C124.698 21.46 125.223 21.745 125.953 21.745C126.983 21.745 127.778 21.295 128.338 20.395C128.558 20.465 128.668 20.57 128.668 20.71C128.668 20.96 128.438 21.25 127.978 21.58C127.758 21.74 127.448 21.88 127.048 22C126.648 22.11 126.203 22.165 125.713 22.165ZM127.378 16.78C127.378 16.32 127.283 15.925 127.093 15.595C126.833 15.155 126.413 14.935 125.833 14.935C124.753 14.935 124.123 15.715 123.943 17.275H127.348C127.368 17.105 127.378 16.94 127.378 16.78ZM135.843 16.27C136.293 15.11 137.198 14.53 138.558 14.53C139.238 14.53 139.788 14.735 140.208 15.145C140.628 15.545 140.838 16.12 140.838 16.87C140.838 18.16 140.798 19.725 140.718 21.565L141.753 21.64V22H138.438V21.64L139.248 21.58C139.328 19.32 139.368 18.025 139.368 17.695C139.368 17.365 139.363 17.115 139.353 16.945C139.343 16.765 139.313 16.55 139.263 16.3C139.223 16.04 139.158 15.835 139.068 15.685C138.848 15.315 138.503 15.13 138.033 15.13C137.393 15.13 136.868 15.395 136.458 15.925C136.048 16.455 135.843 17.03 135.843 17.65V21.565L136.968 21.64V22H133.383V21.64L134.373 21.565V15.22L133.098 15.16V14.815L135.783 14.635L135.708 16.255L135.843 16.27ZM150.604 20.44C150.604 20.47 150.599 20.505 150.589 20.545C150.429 21.035 150.159 21.43 149.779 21.73C149.409 22.02 148.974 22.165 148.474 22.165C147.974 22.165 147.554 22.025 147.214 21.745C146.884 21.455 146.719 20.895 146.719 20.065C146.719 19.835 146.744 18.17 146.794 15.07H145.759V14.68H146.809L146.824 12.475H148.294L148.249 14.68H150.394V15.07H148.249C148.199 18.3 148.174 20.19 148.174 20.74C148.174 21.41 148.394 21.745 148.834 21.745C149.104 21.745 149.384 21.59 149.674 21.28C149.974 20.97 150.184 20.62 150.304 20.23C150.504 20.23 150.604 20.3 150.604 20.44ZM157.524 21.79C157.924 21.79 158.269 21.68 158.559 21.46C158.859 21.24 159.009 20.87 159.009 20.35C159.009 20 158.849 19.71 158.529 19.48C158.219 19.25 157.829 19.045 157.359 18.865C156.889 18.675 156.569 18.545 156.399 18.475C156.239 18.395 156.024 18.27 155.754 18.1C155.264 17.77 155.019 17.295 155.019 16.675C155.019 16.055 155.264 15.54 155.754 15.13C156.244 14.72 156.959 14.515 157.899 14.515C158.499 14.515 159.009 14.65 159.429 14.92C159.859 15.18 160.074 15.495 160.074 15.865C160.074 16.235 159.934 16.49 159.654 16.63C159.504 16.7 159.354 16.735 159.204 16.735C159.064 16.735 158.924 16.705 158.784 16.645C158.824 16.465 158.844 16.27 158.844 16.06C158.844 15.85 158.794 15.64 158.694 15.43C158.524 15.07 158.199 14.89 157.719 14.89C157.239 14.89 156.874 15.02 156.624 15.28C156.374 15.54 156.249 15.88 156.249 16.3C156.249 16.73 156.429 17.05 156.789 17.26C157.059 17.43 157.394 17.585 157.794 17.725C158.194 17.865 158.464 17.965 158.604 18.025C158.754 18.075 158.949 18.165 159.189 18.295C159.429 18.425 159.609 18.56 159.729 18.7C160.039 19.04 160.194 19.5 160.194 20.08C160.194 20.66 159.934 21.155 159.414 21.565C158.894 21.965 158.259 22.165 157.509 22.165C156.759 22.165 156.099 22.05 155.529 21.82C154.969 21.59 154.689 21.255 154.689 20.815C154.689 20.405 154.994 20.135 155.604 20.005C155.784 21.195 156.424 21.79 157.524 21.79ZM175.781 21.73C176.161 21.73 176.486 21.65 176.756 21.49C177.036 21.33 177.251 21.13 177.401 20.89C177.561 20.65 177.686 20.345 177.776 19.975C177.906 19.385 177.971 18.64 177.971 17.74C177.971 16.84 177.816 16.155 177.506 15.685C177.196 15.215 176.761 14.98 176.201 14.98C175.641 14.98 175.126 15.22 174.656 15.7C174.196 16.17 173.966 16.605 173.966 17.005L173.996 21.175C174.476 21.545 175.071 21.73 175.781 21.73ZM173.981 10.51L173.966 13.72C173.966 14.74 173.941 15.465 173.891 15.895H174.026C174.296 15.455 174.671 15.115 175.151 14.875C175.631 14.635 176.146 14.515 176.696 14.515C177.526 14.515 178.221 14.805 178.781 15.385C179.341 15.955 179.621 16.865 179.621 18.115C179.621 19.355 179.286 20.345 178.616 21.085C177.946 21.815 176.991 22.18 175.751 22.18C175.471 22.18 175.146 22.135 174.776 22.045C174.416 21.955 174.121 21.835 173.891 21.685L172.511 22.165V11.23L171.191 11.17L171.176 10.825L173.981 10.51ZM186.202 25.06C186.002 25.29 185.747 25.495 185.437 25.675C185.127 25.865 184.812 25.96 184.492 25.96C184.182 25.96 183.937 25.875 183.757 25.705C183.587 25.545 183.502 25.325 183.502 25.045C183.502 24.775 183.627 24.5 183.877 24.22C184.157 24.54 184.472 24.7 184.822 24.7C185.322 24.7 185.752 24.48 186.112 24.04C186.472 23.61 186.822 22.93 187.162 22L184.282 15.16L183.517 15.07V14.68H186.712V15.07L185.677 15.16L187.822 20.395L189.667 15.355L188.467 15.07V14.68H191.347V15.07L190.297 15.355L187.762 22C187.582 22.46 187.442 22.815 187.342 23.065C187.242 23.315 187.077 23.65 186.847 24.07C186.627 24.5 186.412 24.83 186.202 25.06Z" fill="#404B34"/>
<path d="M89.0961 59.096V38.68L86.3121 38.392V37.624H95.1761V38.392L92.3921 38.68V57.304C92.3921 61.976 91.1015 64.9307 88.5201 66.168C87.5175 66.6373 86.3655 66.872 85.0641 66.872C83.7628 66.872 82.6855 66.648 81.8321 66.2C80.9788 65.752 80.5521 64.9947 80.5521 63.928C80.5521 63.48 80.7548 63.0853 81.1601 62.744C81.5441 62.424 81.9601 62.264 82.4081 62.264C82.8561 62.264 83.2188 62.3067 83.4961 62.392C83.3681 62.84 83.3041 63.256 83.3041 63.64C83.3041 65.0693 83.9868 65.784 85.3521 65.784C87.8481 65.784 89.0961 63.5547 89.0961 59.096ZM114.37 51.32C114.37 53.7093 114.829 55.4693 115.746 56.6C116.685 57.7093 118.157 58.264 120.162 58.264C122.168 58.264 123.65 57.7307 124.61 56.664C125.592 55.5973 126.082 53.784 126.082 51.224V38.872L123.714 38.552V37.624H130.05V38.616L127.458 38.872V51.512C127.458 53.112 127.234 54.4027 126.786 55.384C126.36 56.344 125.88 57.08 125.346 57.592C124.813 58.104 124.077 58.5307 123.138 58.872C122.2 59.2133 121.101 59.384 119.842 59.384C116.898 59.384 114.701 58.7973 113.25 57.624C111.821 56.4293 111.106 54.5413 111.106 51.96V38.68L108.578 38.456V37.624H117.25V38.456L114.37 38.68V51.32ZM143.701 37.624H152.565V38.392L149.781 38.68V57.976L157.845 57.88L159.349 54.232H160.181L159.797 59H143.701V58.232L146.485 57.944V38.68L143.701 38.392V37.624ZM182.273 59H173.409V58.232L176.193 57.944V38.68L173.409 38.392V37.624H182.273V38.392L179.489 38.68V57.944L182.273 58.232V59ZM217.424 59H208.784V58.328L211.28 57.944L208.464 50.584H201.264L198.576 57.4L201.424 58.232V59H194.736V58.232L197.168 57.4L205.04 37.624H206.608L214.96 57.944L217.424 58.232V59ZM207.984 49.4L204.848 41.624L201.712 49.4H207.984Z" fill="#404B34"/>
</svg>
